<?xml version="1.0" standalone="no"?><svg width="1732.5" height="450" xmlns="http://www.w3.org/2000/svg" xmlns:xlink="http://www.w3.org/1999/xlink"><style>body { font-family: sans-serif; padding: 0px; margin: 0px; }line.bg { stroke: rgba(3, 148, 172, 0.7); stroke-width: 1px; }circle.bg { fill: rgba(100, 220, 240, 0.7); }line.bg-sub { stroke: rgba(140, 240, 240, 0.5); stroke-width: 1px; }rect, path, circle { fill: none; stroke-width: 2px; stroke-linejoin: round; }pattern line { vector-effect: non-scaling-stroke; }.zoomed-out pattern line { vector-effect: none; }text { stroke-width: 0px; font-family: sans-serif; }text tspan { vector-effect: non-scaling-stroke; white-space: pre; }.ui-dark { background: rgb(51, 51, 51); }.ui-dark line.bg { stroke: rgba(172, 232, 242, 0.57); stroke-width: 1px; }.ui-dark circle.bg { fill: rgba(100, 220, 240, 0.3); }.ui-dark line.bg-sub { stroke: rgba(140, 240, 240, 0.1); stroke-width: 1px; }rect.marquee { fill: rgba(234, 255, 231, 0.3); stroke: rgb(98, 137, 95); stroke-width: 1px; stroke-dasharray: 4px; vector-effect: non-scaling-stroke; }rect.highlight { fill: blue; opacity: 0.5; }.bg rect { stroke: rgba(3, 148, 172, 0.7); stroke-width: 1px; }</style><g transform="translate(108.75, -45)"><defs><pattern id="pattern_bg" viewBox="0 0 60 60" width="0.0375" height="0.06217616580310881" patternTransform="scale(0.5 0.5) translate(800 482.5)"><line class="bg" x1="0" y1="0" x2="60" y2="0"></line><line class="bg" x1="0" y1="0" y2="60" x2="0"></line><line class="bg-sub" x1="0" y1="15" x2="60" y2="15"></line><line class="bg-sub" y1="0" x1="15" y2="60" x2="15"></line><line class="bg-sub" x1="0" y1="30" x2="60" y2="30"></line><line class="bg-sub" y1="0" x1="30" y2="60" x2="30"></line><line class="bg-sub" x1="0" y1="45" x2="60" y2="45"></line><line class="bg-sub" y1="0" x1="45" y2="60" x2="45"></line></pattern></defs><g class="bg"><rect x="-800" y="-482.5" width="3200" height="1930" style="fill: url(&quot;#pattern_bg&quot;);"></rect></g><g class="u current" data-layer="Layer 1" style="visibility: visible;"><rect x="180" y="360" class="" style="stroke: rgb(41, 173, 255); fill: rgba(0, 0, 0, 0); stroke-width: 2px;" width="195" height="60" data--zt=""></rect><rect x="420" y="360" class="" style="stroke: rgb(41, 173, 255); fill: rgba(0, 0, 0, 0); stroke-width: 2px;" width="195" height="60" data--zt=""></rect><rect x="660" y="360" class="" style="stroke: rgb(41, 173, 255); fill: rgba(0, 0, 0, 0); stroke-width: 2px;" width="195" height="60" data--zt=""></rect><rect x="900" y="360" class="" style="stroke: rgb(41, 173, 255); fill: rgba(0, 0, 0, 0); stroke-width: 2px;" width="195" height="60" data--zt=""></rect><rect x="1140" y="360" class="" style="stroke: rgb(41, 173, 255); fill: rgba(0, 0, 0, 0); stroke-width: 2px;" width="195" height="60" data--zt=""></rect><rect x="360" y="240" class="" style="stroke: rgb(41, 173, 255); fill: rgba(0, 0, 0, 0); stroke-width: 2px;" width="195" height="60" data--zt=""></rect><rect x="900" y="240" class="" style="stroke: rgb(41, 173, 255); fill: rgba(0, 0, 0, 0); stroke-width: 2px;" width="195" height="60" data--zt=""></rect><rect x="660" y="120" class="" style="stroke: rgb(41, 173, 255); fill: rgba(0, 0, 0, 0); stroke-width: 2px;" width="195" height="60" data--zt=""></rect><path d="M 675 120 L 675 180" class="" stroke="rgb(41, 173, 255)" style="fill: rgba(0, 0, 0, 0); stroke-width: 2px;" data--zt=""></path><path d="M 720 120 L 720 180" class="" stroke="rgb(41, 173, 255)" style="fill: rgba(0, 0, 0, 0); stroke-width: 2px;" data--zt=""></path><path d="M 735 120 L 735 180" class="" stroke="rgb(41, 173, 255)" style="fill: rgba(0, 0, 0, 0); stroke-width: 2px;" data--zt=""></path><path d="M 780 120 L 780 180" class="" stroke="rgb(41, 173, 255)" style="fill: rgba(0, 0, 0, 0); stroke-width: 2px;" data--zt=""></path><path d="M 840 120 L 840 180" class="" stroke="rgb(41, 173, 255)" style="fill: rgba(0, 0, 0, 0); stroke-width: 2px;" data--zt=""></path><path d="M 795 120 L 795 180" class="" stroke="rgb(41, 173, 255)" style="fill: rgba(0, 0, 0, 0); stroke-width: 2px;" data--zt=""></path><path d="M 375 240 L 375 300" class="" stroke="rgb(41, 173, 255)" style="fill: rgba(0, 0, 0, 0); stroke-width: 2px;" data--zt=""></path><path d="M 420 240 L 420 300" class="" stroke="rgb(41, 173, 255)" style="fill: rgba(0, 0, 0, 0); stroke-width: 2px;" data--zt=""></path><path d="M 435 240 L 435 300" class="" stroke="rgb(41, 173, 255)" style="fill: rgba(0, 0, 0, 0); stroke-width: 2px;" data--zt=""></path><path d="M 480 240 L 480 300" class="" stroke="rgb(41, 173, 255)" style="fill: rgba(0, 0, 0, 0); stroke-width: 2px;" data--zt=""></path><path d="M 495 240 L 495 300" class="" stroke="rgb(41, 173, 255)" style="fill: rgba(0, 0, 0, 0); stroke-width: 2px;" data--zt=""></path><path d="M 540 240 L 540 300" class="" stroke="rgb(41, 173, 255)" style="fill: rgba(0, 0, 0, 0); stroke-width: 2px;" data--zt=""></path><path d="M 915 240 L 915 300" class="" stroke="rgb(41, 173, 255)" style="fill: rgba(0, 0, 0, 0); stroke-width: 2px;" data--zt=""></path><path d="M 960 240 L 960 300" class="" stroke="rgb(41, 173, 255)" style="fill: rgba(0, 0, 0, 0); stroke-width: 2px;" data--zt=""></path><path d="M 975 240 L 975 300" class="" stroke="rgb(41, 173, 255)" style="fill: rgba(0, 0, 0, 0); stroke-width: 2px;" data--zt=""></path><path d="M 1020 240 L 1020 300" class="" stroke="rgb(41, 173, 255)" style="fill: rgba(0, 0, 0, 0); stroke-width: 2px;" data--zt=""></path><path d="M 1035 240 L 1035 300" class="" stroke="rgb(41, 173, 255)" style="fill: rgba(0, 0, 0, 0); stroke-width: 2px;" data--zt=""></path><path d="M 1080 240 L 1080 300" class="" stroke="rgb(41, 173, 255)" style="fill: rgba(0, 0, 0, 0); stroke-width: 2px;" data--zt=""></path><path d="M 195 360 L 195 420" class="" stroke="rgb(41, 173, 255)" style="fill: rgba(0, 0, 0, 0); stroke-width: 2px;" data--zt=""></path><path d="M 240 360 L 240 420" class="" stroke="rgb(41, 173, 255)" style="fill: rgba(0, 0, 0, 0); stroke-width: 2px;" data--zt=""></path><path d="M 300 360 L 300 420" class="" stroke="rgb(41, 173, 255)" style="fill: rgba(0, 0, 0, 0); stroke-width: 2px;" data--zt=""></path><path d="M 255 360 L 255 420" class="" stroke="rgb(41, 173, 255)" style="fill: rgba(0, 0, 0, 0); stroke-width: 2px;" data--zt=""></path><path d="M 315 360 L 315 420" class="" stroke="rgb(41, 173, 255)" style="fill: rgba(0, 0, 0, 0); stroke-width: 2px;" data--zt=""></path><path d="M 360 360 L 360 420" class="" stroke="rgb(41, 173, 255)" style="fill: rgba(0, 0, 0, 0); stroke-width: 2px;" data--zt=""></path><path d="M 435 360 L 435 420" class="" stroke="rgb(41, 173, 255)" style="fill: rgba(0, 0, 0, 0); stroke-width: 2px;" data--zt=""></path><path d="M 480 360 L 480 420" class="" stroke="rgb(41, 173, 255)" style="fill: rgba(0, 0, 0, 0); stroke-width: 2px;" data--zt=""></path><path d="M 495 360 L 495 420" class="" stroke="rgb(41, 173, 255)" style="fill: rgba(0, 0, 0, 0); stroke-width: 2px;" data--zt=""></path><path d="M 540 360 L 540 420" class="" stroke="rgb(41, 173, 255)" style="fill: rgba(0, 0, 0, 0); stroke-width: 2px;" data--zt=""></path><path d="M 555 360 L 555 420" class="" stroke="rgb(41, 173, 255)" style="fill: rgba(0, 0, 0, 0); stroke-width: 2px;" data--zt=""></path><path d="M 600 420 L 600 360" class="" stroke="rgb(41, 173, 255)" style="fill: rgba(0, 0, 0, 0); stroke-width: 2px;" data--zt=""></path><path d="M 675 360 L 675 420" class="" stroke="rgb(41, 173, 255)" style="fill: rgba(0, 0, 0, 0); stroke-width: 2px;" data--zt=""></path><path d="M 720 360 L 720 420" class="" stroke="rgb(41, 173, 255)" style="fill: rgba(0, 0, 0, 0); stroke-width: 2px;" data--zt=""></path><path d="M 735 420 L 735 360" class="" stroke="rgb(41, 173, 255)" style="fill: rgba(0, 0, 0, 0); stroke-width: 2px;" data--zt=""></path><path d="M 780 360 L 780 420" class="" stroke="rgb(41, 173, 255)" style="fill: rgba(0, 0, 0, 0); stroke-width: 2px;" data--zt=""></path><path d="M 795 420 L 795 360" class="" stroke="rgb(41, 173, 255)" style="fill: rgba(0, 0, 0, 0); stroke-width: 2px;" data--zt=""></path><path d="M 840 360 L 840 420" class="" stroke="rgb(41, 173, 255)" style="fill: rgba(0, 0, 0, 0); stroke-width: 2px;" data--zt=""></path><path d="M 915 360 L 915 420" class="" stroke="rgb(41, 173, 255)" style="fill: rgba(0, 0, 0, 0); stroke-width: 2px;" data--zt=""></path><path d="M 960 360 L 960 420" class="" stroke="rgb(41, 173, 255)" style="fill: rgba(0, 0, 0, 0); stroke-width: 2px;" data--zt=""></path><path d="M 1020 360 L 1020 420" class="" stroke="rgb(41, 173, 255)" style="fill: rgba(0, 0, 0, 0); stroke-width: 2px;" data--zt=""></path><path d="M 975 360 L 975 420" class="" stroke="rgb(41, 173, 255)" style="fill: rgba(0, 0, 0, 0); stroke-width: 2px;" data--zt=""></path><path d="M 1080 360 L 1080 420" class="" stroke="rgb(41, 173, 255)" style="fill: rgba(0, 0, 0, 0); stroke-width: 2px;" data--zt=""></path><path d="M 1035 360 L 1035 420" class="" stroke="rgb(41, 173, 255)" style="fill: rgba(0, 0, 0, 0); stroke-width: 2px;" data--zt=""></path><path d="M 1200 360 L 1200 420" class="" stroke="rgb(41, 173, 255)" style="fill: rgba(0, 0, 0, 0); stroke-width: 2px;" data--zt=""></path><path d="M 1260 360 L 1260 420" class="" stroke="rgb(41, 173, 255)" style="fill: rgba(0, 0, 0, 0); stroke-width: 2px;" data--zt=""></path><path d="M 1320 360 L 1320 420" class="" stroke="rgb(41, 173, 255)" style="fill: rgba(0, 0, 0, 0); stroke-width: 2px;" data--zt=""></path><path d="M 1275 360 L 1275 420" class="" stroke="rgb(41, 173, 255)" style="fill: rgba(0, 0, 0, 0); stroke-width: 2px;" data--zt=""></path><path d="M 1215 360 L 1215 420" class="" stroke="rgb(41, 173, 255)" style="fill: rgba(0, 0, 0, 0); stroke-width: 2px;" data--zt=""></path><path d="M 1155 360 L 1155 420" class="" stroke="rgb(41, 173, 255)" style="fill: rgba(0, 0, 0, 0); stroke-width: 2px;" data--zt=""></path><path d="M 660 180 L 465 240 l 8.83787916347062 4.678877204190325 m -8.83787916347062 -4.678877204190325 l 4.678877204190325 -8.83787916347062" class="" stroke="rgb(41, 173, 255)" style="fill: rgba(0, 0, 0, 0); stroke-width: 2px;" data--zt=""></path><path d="M 720 180 L 990 240 l -5.368754921931594 -8.436614877321073 m 5.368754921931594 8.436614877321073 l -8.436614877321073 5.368754921931594" class="" stroke="rgb(41, 173, 255)" style="fill: rgba(0, 0, 0, 0); stroke-width: 2px;" data--zt=""></path><path d="M 360 300 L 285 360 l 9.93883734673619 1.1043152607484652 m -9.93883734673619 -1.1043152607484652 l 1.1043152607484659 -9.93883734673619" class="" stroke="rgb(41, 173, 255)" style="fill: rgba(0, 0, 0, 0); stroke-width: 2px;" data--zt=""></path><path d="M 420 300 L 510 360 l -1.9611613513818391 -9.805806756909202 m 1.9611613513818391 9.805806756909202 l -9.8058067569092 1.9611613513818427" class="" stroke="rgb(41, 173, 255)" style="fill: rgba(0, 0, 0, 0); stroke-width: 2px;" data--zt=""></path><path d="M 900 300 L 765 360 l 9.333456062030596 3.5897907930886874 m -9.333456062030596 -3.5897907930886874 l 3.589790793088688 -9.333456062030596" class="" stroke="rgb(41, 173, 255)" style="fill: rgba(0, 0, 0, 0); stroke-width: 2px;" data--zt=""></path><path d="M 960 300 L 990 360 l 3.1622776601683773 -9.486832980505138 m -3.1622776601683773 9.486832980505138 l -9.486832980505138 -3.1622776601683777" class="" stroke="rgb(41, 173, 255)" style="fill: rgba(0, 0, 0, 0); stroke-width: 2px;" data--zt=""></path><path d="M 1020 300 L 1230 360 l -4.8564293117863215 -8.741572761215377 m 4.8564293117863215 8.741572761215377 l -8.741572761215378 4.8564293117863215" class="" stroke="rgb(41, 173, 255)" style="fill: rgba(0, 0, 0, 0); stroke-width: 2px;" data--zt=""></path><text x="690" y="148" fill="rgb(41, 173, 255)" stroke="rgba(0, 0, 0, 0)" style="font-family: sans-serif; font-size: 18px; cursor: text;" data--zt=""><tspan x="690" dy="0em" data--zt="">9</tspan></text><text x="390" y="268" fill="rgb(41, 173, 255)" stroke="rgba(0, 0, 0, 0)" style="font-family: sans-serif; font-size: 18px; cursor: text;" data--zt=""><tspan x="390" dy="0em" data--zt="">4</tspan></text><text x="210" y="388" fill="rgb(41, 173, 255)" stroke="rgba(0, 0, 0, 0)" style="font-family: sans-serif; font-size: 18px; cursor: text;" data--zt=""><tspan x="210" dy="0em" data--zt="">3</tspan></text><text x="270" y="388" fill="rgb(41, 173, 255)" stroke="rgba(0, 0, 0, 0)" style="font-family: sans-serif; font-size: 18px; cursor: text;" data--zt=""><tspan x="270" dy="0em" data--zt="">4</tspan></text><text x="450" y="388" fill="rgb(41, 173, 255)" stroke="rgba(0, 0, 0, 0)" style="font-family: sans-serif; font-size: 18px; cursor: text;" data--zt=""><tspan x="450" dy="0em" data--zt="">5</tspan></text><text x="510" y="388" fill="rgb(41, 173, 255)" stroke="rgba(0, 0, 0, 0)" style="font-family: sans-serif; font-size: 18px; cursor: text;" data--zt=""><tspan x="510" dy="0em">7</tspan></text><text x="570" y="388" fill="rgb(41, 173, 255)" stroke="rgba(0, 0, 0, 0)" style="font-family: sans-serif; font-size: 18px; cursor: text;" data--zt=""><tspan x="570" dy="0em">9</tspan></text><text x="690" y="388" fill="rgb(41, 173, 255)" stroke="rgba(0, 0, 0, 0)" style="font-family: sans-serif; font-size: 18px; cursor: text;" data--zt=""><tspan x="690" dy="0em">13</tspan></text><text x="750" y="388" fill="rgb(41, 173, 255)" stroke="rgba(0, 0, 0, 0)" style="font-family: sans-serif; font-size: 18px; cursor: text;" data--zt=""><tspan x="750" dy="0em">16</tspan></text><text x="930" y="388" fill="rgb(41, 173, 255)" stroke="rgba(0, 0, 0, 0)" style="font-family: sans-serif; font-size: 18px; cursor: text;" data--zt=""><tspan x="930" dy="0em">20</tspan></text><text x="1170" y="388" fill="rgb(41, 173, 255)" stroke="rgba(0, 0, 0, 0)" style="font-family: sans-serif; font-size: 18px; cursor: text;" data--zt=""><tspan x="1170" dy="0em">30</tspan></text><text x="930" y="268" fill="rgb(41, 173, 255)" stroke="rgba(0, 0, 0, 0)" style="font-family: sans-serif; font-size: 18px; cursor: text;" data--zt=""><tspan x="930" dy="0em">16</tspan></text><text x="990" y="268" fill="rgb(41, 173, 255)" stroke="rgba(0, 0, 0, 0)" style="font-family: sans-serif; font-size: 18px; cursor: text;" data--zt=""><tspan x="990" dy="0em">25</tspan></text><text x="990" y="388" fill="rgb(41, 173, 255)" stroke="rgba(0, 0, 0, 0)" style="font-family: sans-serif; font-size: 18px; cursor: text;" data--zt=""><tspan x="990" dy="0em">25</tspan></text><text x="1230" y="388" fill="rgb(41, 173, 255)" stroke="rgba(0, 0, 0, 0)" style="font-family: sans-serif; font-size: 18px; cursor: text;" data--zt=""><tspan x="1230" dy="0em">37</tspan></text></g></g></svg>